<?xml version="1.0" encoding="UTF-8" standalone="no"?>
<svg
   height="128"
   viewBox="0 0 64 64"
   width="128"
   fill="#000000"
   version="1.1"
   id="svg6"
   sodipodi:docname="group_black_48dp.svg"
   inkscape:export-filename="..\UI-ICONS\ic_group.png"
   inkscape:export-xdpi="96"
   inkscape:export-ydpi="96"
   inkscape:version="1.2 (dc2aedaf03, 2022-05-15)"
   xmlns:inkscape="http://www.inkscape.org/namespaces/inkscape"
   xmlns:sodipodi="http://sodipodi.sourceforge.net/DTD/sodipodi-0.dtd"
   xmlns="http://www.w3.org/2000/svg"
   xmlns:svg="http://www.w3.org/2000/svg">
  <defs
     id="defs10" />
  <sodipodi:namedview
     id="namedview8"
     pagecolor="#ffffff"
     bordercolor="#666666"
     borderopacity="1.0"
     inkscape:showpageshadow="2"
     inkscape:pageopacity="0.0"
     inkscape:pagecheckerboard="0"
     inkscape:deskcolor="#d1d1d1"
     showgrid="false"
     inkscape:zoom="7.5645694"
     inkscape:cx="38.601007"
     inkscape:cy="68.939813"
     inkscape:window-width="2560"
     inkscape:window-height="1377"
     inkscape:window-x="-8"
     inkscape:window-y="-8"
     inkscape:window-maximized="1"
     inkscape:current-layer="svg6" />
  <path
     d="M 0,0 H 24 V 24 H 0 Z"
     fill="none"
     id="path2" />
  <path
     d="m 23.260561,36.623906 c -6.864052,0 -20.5334873,3.901555 -20.5334873,11.671318 v 5.835658 H 43.794047 v -5.835658 c 0,-7.769763 -13.669435,-11.671318 -20.533486,-11.671318 z M 9.591125,47.461558 c 2.464019,-1.934104 8.41873,-4.168327 13.669436,-4.168327 5.250706,0 11.205417,2.234223 13.669435,4.168327 z M 23.260561,30.788247 c 5.661375,0 10.266743,-5.23542 10.266743,-11.671318 0,-6.435897 -4.605368,-11.6713176 -10.266743,-11.6713176 -5.661376,0 -10.266744,5.2354206 -10.266744,11.6713176 0,6.435898 4.605368,11.671318 10.266744,11.671318 z m 0,-16.673311 c 2.434685,0 4.400033,2.234224 4.400033,5.001993 0,2.76777 -1.965348,5.001994 -4.400033,5.001994 -2.434685,0 -4.400033,-2.234224 -4.400033,-5.001994 0,-2.767769 1.965348,-5.001993 4.400033,-5.001993 z m 20.650821,22.70905 c 3.402692,2.801116 5.749376,6.535937 5.749376,11.471238 v 5.835658 h 11.733421 v -5.835658 c 0,-6.736018 -10.266743,-10.570879 -17.482797,-11.471238 z m -3.05069,-6.035739 c 5.661376,0 10.266744,-5.23542 10.266744,-11.671318 0,-6.435897 -4.605368,-11.6713176 -10.266744,-11.6713176 -1.584012,0 -3.050689,0.433507 -4.400033,1.1671325 1.848014,2.9678491 2.933356,6.6026311 2.933356,10.5041851 0,3.901555 -1.085342,7.536336 -2.933356,10.504186 1.349344,0.733627 2.816021,1.167132 4.400033,1.167132 z"
     id="path4"
     style="stroke-width:3.12759" />
</svg>
