<?xml version="1.0" encoding="UTF-8" standalone="no"?>
<svg
   height="800"
   width="800"
   version="1.1"
   id="svg4"
   sodipodi:docname="history_800x800.svg"
   xml:space="preserve"
   inkscape:version="1.2 (dc2aedaf03, 2022-05-15)"
   xmlns:inkscape="http://www.inkscape.org/namespaces/inkscape"
   xmlns:sodipodi="http://sodipodi.sourceforge.net/DTD/sodipodi-0.dtd"
   xmlns="http://www.w3.org/2000/svg"
   xmlns:svg="http://www.w3.org/2000/svg"><defs
     id="defs8" /><sodipodi:namedview
     id="namedview6"
     pagecolor="#ffffff"
     bordercolor="#666666"
     borderopacity="1.0"
     inkscape:showpageshadow="2"
     inkscape:pageopacity="0.0"
     inkscape:pagecheckerboard="0"
     inkscape:deskcolor="#d1d1d1"
     showgrid="false"
     inkscape:zoom="1.40125"
     inkscape:cx="1210.3479"
     inkscape:cy="400"
     inkscape:window-width="2560"
     inkscape:window-height="1377"
     inkscape:window-x="-8"
     inkscape:window-y="-8"
     inkscape:window-maximized="1"
     inkscape:current-layer="layer2"><inkscape:page
       x="0"
       y="0"
       width="800"
       height="800"
       id="page548"
       inkscape:export-filename="..\HistoryOn.png"
       inkscape:export-xdpi="96"
       inkscape:export-ydpi="96" /><inkscape:page
       x="810"
       y="0"
       width="800"
       height="800"
       id="page550"
       inkscape:export-filename="..\HistoryOff.png"
       inkscape:export-xdpi="96"
       inkscape:export-ydpi="96" /></sodipodi:namedview><g
     inkscape:groupmode="layer"
     id="layer1"
     inkscape:label="HistoryOn"><path
       d="m 400.30983,738.49403 q -140.65561,0 -238.83134,-99.59173 Q 63.302754,539.31058 63.302754,397.71097 H 119.9426 q 0,117.99967 81.18378,201.07145 81.18378,83.07177 199.18345,83.07177 119.88767,0 202.95945,-84.01577 83.07177,-84.01577 83.07177,-203.90344 0,-117.05568 -84.01577,-197.76746 -84.01577,-80.71178 -202.01545,-80.71178 -64.19182,0 -120.35967,29.26392 -56.16784,29.26392 -97.70373,77.40779 h 99.11973 v 56.63984 H 84.070697 V 82.415834 H 140.71055 V 182.47956 q 49.08786,-57.58384 116.58368,-90.623752 67.49581,-33.039909 143.0156,-33.039909 70.79981,0 133.10364,26.431927 62.30383,26.431924 109.0317,72.215804 46.72787,45.78387 73.6318,107.1437 26.90392,61.35983 26.90392,132.15964 0,70.79981 -26.90392,133.10363 -26.90393,62.30383 -73.6318,108.55971 -46.72787,46.25587 -109.0317,73.1598 -62.30383,26.90392 -133.10364,26.90392 z M 521.1415,552.52654 375.7659,409.03894 V 207.02349 h 56.63984 V 385.439 l 129.32765,126.49565 z"
       id="path2"
       style="stroke-width:18.8799" /></g><g
     inkscape:groupmode="layer"
     id="layer2"
     inkscape:label="HistoryOff"><path
       d="M 1335.3834,562.91051 1182.4558,409.98293 V 219.29546 h 56.6398 V 387.327 l 135.9357,135.93562 z M 868.10464,561.96652 Q 853.94468,529.8706 845.44871,495.8867 836.95273,461.90279 834.12074,426.97489 h 56.63984 q 1.888,27.37592 9.43998,54.27985 7.55197,26.90392 17.93595,52.39185 z m -33.9839,-191.63148 q 2.83199,-35.8719 11.32797,-69.85581 8.49597,-33.9839 23.59993,-66.07981 l 49.08787,28.31992 q -11.32797,25.48793 -18.40795,52.86385 -7.07998,27.37593 -8.96798,54.75185 z M 997.43229,713.0061 Q 967.22437,692.23816 941.26445,666.75023 915.30452,641.2623 895.48057,611.05438 l 50.03186,-28.31992 q 16.04796,23.59993 36.3439,43.89588 20.29597,20.29594 43.89587,36.3439 z M 945.51243,213.63147 896.42457,185.31155 q 19.82394,-30.20792 45.31187,-55.69585 25.48793,-25.48793 55.69585,-45.311872 l 28.31991,50.031862 q -23.5999,16.04796 -43.89587,35.8719 -20.29594,19.82395 -36.3439,43.42388 z m 236.94337,561.67846 q -35.8719,-2.83199 -69.8558,-11.32797 -33.9839,-8.49598 -66.0798,-23.59993 l 28.3199,-49.08787 q 25.4879,11.32797 52.8638,18.40795 27.376,7.07998 54.7519,8.96798 z M 1074.8401,106.01577 1046.5202,56.927903 q 32.0959,-15.103958 66.0798,-23.599935 33.9839,-8.495977 69.8558,-11.327969 v 56.639844 q -27.3759,1.887995 -54.7519,8.967976 -27.3759,7.07998 -52.8638,18.407951 z m 164.2555,669.29416 v -56.63984 q 27.376,-1.888 54.7519,-8.96798 27.3759,-7.07998 52.8638,-18.40795 l 28.32,49.08787 q -32.096,15.10395 -66.0799,23.59993 -33.9839,8.49598 -69.8558,11.32797 z m 107.6157,-669.29416 q -25.4879,-11.327971 -52.8638,-18.407951 -27.3759,-7.079981 -54.7519,-8.967976 V 21.999999 q 35.8719,2.831992 69.8558,10.85597 33.9839,8.023978 66.0799,24.071934 z m 77.4078,606.99033 -28.3199,-50.03186 q 23.5999,-16.04796 43.4239,-35.8719 19.8239,-19.82395 35.8719,-43.42388 l 50.0318,28.31992 q -19.8239,30.20792 -45.3118,55.69585 -25.488,25.48793 -55.6959,45.31187 z m 50.9759,-499.37463 q -16.048,-23.59993 -35.8719,-43.42388 -19.824,-19.82394 -43.4239,-35.8719 l 28.3199,-50.031862 q 30.2079,19.823942 55.2239,45.311872 25.0159,25.48793 44.8398,55.69585 z m 55.6958,156.70357 q -1.888,-28.31992 -9.4399,-55.22385 -7.552,-26.90392 -18.88,-52.39185 l 50.0319,-28.31992 q 16.0479,32.09591 24.0719,66.07981 8.024,33.98391 10.856,69.85581 z m 21.712,192.57547 -49.0879,-28.31992 q 11.328,-25.48793 18.408,-52.86385 7.0799,-27.37593 8.9679,-54.75185 h 56.6399 q -2.832,35.8719 -11.328,69.85581 -8.496,33.9839 -23.5999,66.07981 z"
       id="path378"
       style="stroke-width:18.8799" /></g></svg>
